<svg width="63" height="56" viewBox="0 0 63 56" fill="none" xmlns="http://www.w3.org/2000/svg">
<path d="M41.2062 4.1038C38.5772 1.47611 35.0122 0 31.2952 0C27.5781 0 24.0131 1.47611 21.3841 4.1038C21.283 4.20406 21.2027 4.32334 21.148 4.45476C21.0932 4.58618 21.0651 4.72714 21.0651 4.86951C21.0651 5.01188 21.0932 5.15284 21.148 5.28426C21.2027 5.41568 21.283 5.53496 21.3841 5.63522C21.5861 5.83609 21.8595 5.94883 22.1444 5.94883C22.4293 5.94883 22.7026 5.83609 22.9047 5.63522C24.0064 4.53304 25.3144 3.65871 26.7541 3.06219C28.1937 2.46566 29.7368 2.15863 31.2952 2.15863C32.8535 2.15863 34.3966 2.46566 35.8363 3.06219C37.2759 3.65871 38.584 4.53304 39.6856 5.63522C39.8877 5.83609 40.161 5.94883 40.4459 5.94883C40.7309 5.94883 41.0042 5.83609 41.2062 5.63522C41.3073 5.53496 41.3876 5.41568 41.4423 5.28426C41.4971 5.15284 41.5253 5.01188 41.5253 4.86951C41.5253 4.72714 41.4971 4.58618 41.4423 4.45476C41.3876 4.32334 41.3073 4.20406 41.2062 4.1038ZM31.2952 8.63335C29.8678 8.63366 28.4988 9.19988 27.4882 10.2079C27.3115 10.4142 27.2192 10.6796 27.2297 10.951C27.2401 11.2225 27.3527 11.4799 27.5447 11.672C27.7368 11.8641 27.9943 11.9766 28.2657 11.9871C28.5371 11.9976 28.8025 11.9052 29.0088 11.7285C29.6154 11.1227 30.4378 10.7823 31.2952 10.7823C32.1525 10.7823 32.9749 11.1227 33.5815 11.7285C33.6782 11.8414 33.7972 11.9331 33.931 11.9979C34.0648 12.0626 34.2105 12.099 34.359 12.1047C34.5075 12.1105 34.6557 12.0854 34.794 12.0312C34.9324 11.977 35.0581 11.8947 35.1632 11.7896C35.2683 11.6845 35.3506 11.5588 35.4048 11.4205C35.459 11.2821 35.484 11.134 35.4783 10.9854C35.4726 10.8369 35.4362 10.6912 35.3715 10.5574C35.3067 10.4236 35.215 10.3046 35.1021 10.2079C34.0916 9.19988 32.7225 8.63366 31.2952 8.63335ZM54.5576 23.6564H54.2449C53.5869 21.2825 52.2484 19.1531 50.3945 17.5309C48.5406 15.9087 46.2524 14.8647 43.8122 14.5275C41.372 14.1904 38.8864 14.5749 36.6622 15.6337C34.4379 16.6924 32.5722 18.3791 31.2952 20.4857C30.1072 18.5208 28.4052 16.9177 26.3729 15.8493C24.3405 14.7809 22.055 14.2878 19.763 14.4233C17.4709 14.5587 15.2594 15.3175 13.367 16.6177C11.4746 17.918 9.97319 19.7104 9.02485 21.8014H8.96014C7.54867 21.7983 6.15652 22.1294 4.8976 22.7677C3.63868 23.406 2.54876 24.3332 1.71704 25.4736C0.885324 26.614 0.335431 27.9352 0.11236 29.3289C-0.110711 30.7226 -0.000621349 32.1494 0.433622 33.4924C0.867865 34.8354 1.61392 36.0566 2.61074 37.0559C3.60757 38.0552 4.82683 38.8043 6.16876 39.2418C7.5107 39.6794 8.93717 39.7931 10.3315 39.5735C11.7257 39.3539 13.0482 38.8073 14.1907 37.9784C15.7973 38.8989 17.5867 39.4548 19.432 39.6069V46.6061C18.6902 46.7998 18.0134 47.1876 17.4713 47.7297C16.9291 48.2719 16.5413 48.9487 16.3476 49.6905H8.64739C8.36136 49.6905 8.08705 49.8041 7.8848 50.0064C7.68255 50.2086 7.56892 50.483 7.56892 50.769C7.56892 51.055 7.68255 51.3293 7.8848 51.5316C8.08705 51.7338 8.36136 51.8474 8.64739 51.8474H16.3476C16.596 52.7613 17.1381 53.5681 17.8905 54.1432C18.6428 54.7184 19.5635 55.03 20.5105 55.03C21.4575 55.03 22.3782 54.7184 23.1305 54.1432C23.8829 53.5681 24.425 52.7613 24.6734 51.8474H37.9169C38.1653 52.7613 38.7074 53.5681 39.4598 54.1432C40.2121 54.7184 41.1328 55.03 42.0798 55.03C43.0268 55.03 43.9475 54.7184 44.6998 54.1432C45.4522 53.5681 45.9943 52.7613 46.2427 51.8474H53.9429C54.229 51.8474 54.5033 51.7338 54.7055 51.5316C54.9078 51.3293 55.0214 51.055 55.0214 50.769C55.0214 50.483 54.9078 50.2086 54.7055 50.0064C54.5033 49.8041 54.229 49.6905 53.9429 49.6905H46.2427C46.049 48.9487 45.6612 48.2719 45.1191 47.7297C44.5769 47.1876 43.9001 46.7998 43.1583 46.6061V39.6177C45.2909 39.45 47.3428 38.7289 49.1114 37.5254C50.0684 38.4131 51.2281 39.0532 52.4893 39.3899C53.7505 39.7266 55.0749 39.7496 56.347 39.457C57.6191 39.1644 58.8004 38.565 59.7877 37.7112C60.7751 36.8573 61.5385 35.7749 62.0116 34.5582C62.4846 33.3416 62.6528 32.0277 62.5015 30.7312C62.3503 29.4346 61.8842 28.1948 61.1438 27.1197C60.4034 26.0446 59.4113 25.167 58.2539 24.5633C57.0965 23.9597 55.809 23.6483 54.5037 23.6564H54.5576ZM14.7084 35.7568C14.5114 35.6262 14.2771 35.5639 14.0413 35.5795C13.8056 35.5951 13.5814 35.6877 13.4034 35.843C12.5795 36.5661 11.5925 37.0784 10.527 37.3359C9.46149 37.5934 8.34941 37.5884 7.28626 37.3214C6.22311 37.0544 5.24065 36.5333 4.42326 35.8029C3.60587 35.0726 2.97797 34.1547 2.59349 33.1282C2.20901 32.1016 2.07943 30.9971 2.21589 29.9095C2.35235 28.8219 2.75077 27.7836 3.37693 26.8839C4.00309 25.9841 4.83827 25.2498 5.81076 24.744C6.78325 24.2382 7.86398 23.976 8.96014 23.9799C9.17584 23.9799 9.40232 23.9799 9.61801 23.9799C9.84792 23.9952 10.0767 23.9364 10.2708 23.8122C10.4648 23.688 10.614 23.5049 10.6965 23.2897C11.4516 21.3055 12.792 19.5978 14.5398 18.3928C16.2877 17.1878 18.3606 16.5426 20.4835 16.5426C22.6065 16.5426 24.6794 17.1878 26.4272 18.3928C28.1751 19.5978 29.5155 21.3055 30.2706 23.2897C30.4827 23.8421 30.6451 24.4124 30.7559 24.9937C30.8109 25.2693 30.9713 25.5126 31.2029 25.6717C31.4346 25.8308 31.7192 25.8932 31.9962 25.8457C32.3134 25.7925 32.6343 25.7637 32.956 25.7594C33.9412 25.7597 34.9104 26.0086 35.7739 26.4829C36.6373 26.9573 37.3672 27.6419 37.8958 28.4732C38.4244 29.3046 38.7348 30.2559 38.7981 31.239C38.8614 32.2222 38.6757 33.2054 38.2581 34.0978C37.8404 34.9901 37.2045 35.7626 36.409 36.3438C35.6135 36.925 34.6842 37.2962 33.7072 37.4229C32.7302 37.5496 31.737 37.4277 30.8196 37.0686C29.9022 36.7095 29.0902 36.1248 28.4588 35.3685C28.3586 35.2482 28.2333 35.1511 28.0918 35.084C27.9502 35.017 27.7958 34.9816 27.6392 34.9803C27.3972 34.9786 27.1617 35.0584 26.9705 35.2067C25.2384 36.581 23.115 37.3704 20.9058 37.4615C18.6966 37.5526 16.5154 36.9406 14.676 35.7136L14.7084 35.7568ZM20.5105 52.9259C20.0839 52.9259 19.6669 52.7994 19.3122 52.5624C18.9575 52.3254 18.681 51.9885 18.5178 51.5944C18.3545 51.2003 18.3118 50.7666 18.395 50.3482C18.4782 49.9298 18.6837 49.5455 18.9853 49.2438C19.287 48.9422 19.6713 48.7367 20.0897 48.6535C20.5081 48.5703 20.9418 48.613 21.3359 48.7762C21.7301 48.9395 22.0669 49.216 22.3039 49.5707C22.5409 49.9254 22.6674 50.3424 22.6674 50.769C22.6674 51.341 22.4402 51.8897 22.0357 52.2942C21.6312 52.6987 21.0826 52.9259 20.5105 52.9259ZM37.9169 49.6905H24.6734C24.4797 48.9487 24.0919 48.2719 23.5497 47.7297C23.0076 47.1876 22.3308 46.7998 21.589 46.6061V39.6284C23.7256 39.4323 25.7757 38.6895 27.5421 37.4715C28.7919 38.6465 30.3878 39.3863 32.0922 39.5806C33.7965 39.775 35.518 39.4135 37.0002 38.55C38.268 39.1108 39.6201 39.457 41.0013 39.5745V46.5738C40.2556 46.7701 39.5761 47.1628 39.0336 47.711C38.4911 48.2592 38.1055 48.9427 37.9169 49.6905ZM44.2367 50.769C44.2367 51.1956 44.1102 51.6126 43.8732 51.9673C43.6362 52.322 43.2994 52.5985 42.9052 52.7617C42.5111 52.925 42.0774 52.9677 41.659 52.8845C41.2406 52.8012 40.8563 52.5958 40.5546 52.2942C40.253 51.9925 40.0475 51.6082 39.9643 51.1898C39.8811 50.7714 39.9238 50.3377 40.0871 49.9436C40.2503 49.5494 40.5268 49.2126 40.8815 48.9756C41.2362 48.7386 41.6532 48.6121 42.0798 48.6121C42.6519 48.6121 43.2005 48.8393 43.605 49.2438C44.0095 49.6483 44.2367 50.1969 44.2367 50.769ZM54.5576 37.5146C53.6966 37.5105 52.8474 37.3148 52.0714 36.9418C51.2954 36.5687 50.6122 36.0276 50.0712 35.3577C49.8838 35.1419 49.6184 35.0093 49.3332 34.9891C49.0481 34.9688 48.7666 35.0627 48.5506 35.2499C46.713 36.717 44.4312 37.5156 42.0798 37.5146C41.0111 37.5086 39.9495 37.3414 38.9307 37.0186C39.9708 35.8697 40.655 34.4435 40.9001 32.9133C41.1451 31.383 40.9406 29.8146 40.3113 28.3983C39.682 26.9821 38.655 25.7791 37.355 24.9354C36.0551 24.0917 34.5381 23.6436 32.9883 23.6456H32.6756C32.6109 23.4083 32.5354 23.1711 32.4491 22.9338C33.3277 20.8737 34.8436 19.1496 36.7743 18.0145C38.705 16.8795 40.9487 16.3933 43.176 16.6274C45.4034 16.8615 47.497 17.8035 49.1495 19.3151C50.8021 20.8267 51.9264 22.8283 52.3576 25.026C52.4125 25.3016 52.5729 25.5449 52.8046 25.704C53.0362 25.8632 53.3208 25.9256 53.5978 25.878C53.9151 25.8261 54.2362 25.8008 54.5576 25.8025C55.3471 25.7686 56.1353 25.8948 56.8746 26.1736C57.614 26.4523 58.2894 26.8778 58.86 27.4244C59.4306 27.9711 59.8846 28.6275 60.1948 29.3543C60.505 30.081 60.665 30.863 60.665 31.6532C60.665 32.4434 60.505 33.2254 60.1948 33.9521C59.8846 34.6789 59.4306 35.3353 58.86 35.882C58.2894 36.4286 57.614 36.8541 56.8746 37.1328C56.1353 37.4115 55.3471 37.5378 54.5576 37.5039V37.5146Z" fill="#FEFEFE"/>
</svg>
